<?xml version="1.0" encoding="UTF-8"?><svg id="Calque_2" xmlns="http://www.w3.org/2000/svg" viewBox="0 0 46.56 45.12"><defs><style>.cls-1{fill:#005585;}.cls-2{fill:#9b9b9b;}</style></defs><g id="Calque_1-2"><g><g><path class="cls-2" d="M40.11,12.66l-3.02,1.4v3.72l-.75,.34v-3.1c0-.05,0-.1-.01-.14-.03-.18-.11-.3-.23-.37-.22-.14-.58-.13-.86,.04-4.64,2.81-11.7,4.33-15.67,3.22-1.98-.56-2.55-1.71-2.55-2.93V5.87s-1.14,.66-1.39,.82c-.25,.16-.46,.44-.46,1.06v7.62c0,1.02,.3,4.44,5.88,4.44,.4,0,.81-.01,1.22-.05,.3-.02,.59-.05,.89-.08,.87-.1,1.75-.26,2.59-.46,.5-.11,.98-.24,1.46-.38,.54-.16,1.07-.33,1.58-.5,.04-.01,.08-.03,.12-.04,2.57-.9,4.65-2,5.58-2.65v2.74c0,.5,.51,.82,.96,.62l.89-.41,.75-.34,1.85-.86,.27-.13,1.85-.86v-3.14c0-.49-.5-.82-.95-.62Zm-.9,4.14l-.27,.13v-3.25l.27-.13v3.25Z"/><path class="cls-1" d="M40.1,25.92l-.89,.41-.27,.13v-8.76l-1.85,.85v12.48l-.75,.34v-7.44c0-.49-.52-.82-.96-.61l-.89,.41-.27,.13-1.85,.86v3.03c0,.63,.53,1.09,1.1,1.06-3.73,2.15-10.16,3.32-13.85,2.38-1.99-.51-2.6-1.87-2.6-3.09v-7.74c0-.46-.27-.89-.69-1.08l-1.15-.53v9.89c0,1.02,.3,4.44,5.88,4.44,.4,0,.81-.01,1.22-.04,.3-.02,.59-.05,.89-.08,.87-.1,1.75-.26,2.59-.46,.5-.11,.98-.24,1.46-.38,.54-.16,1.07-.33,1.58-.5,.04-.01,.08-.03,.12-.04,2.57-.9,4.65-2,5.58-2.66v2.74c0,.5,.51,.82,.96,.62l5.61-2.6v-3.14c0-.49-.52-.82-.96-.61Zm-5.61,2.03l-.27,.13v-3.74l.27-.13v3.74Zm4.72,2.1l-.27,.13v-3.25l.27-.13v3.25Z"/><path class="cls-1" d="M41.07,16.72v7.64c0,.47-.28,.91-.71,1.11l-1.14,.53v-8.42l1.85-.86Z"/><path class="cls-1" d="M33.29,22.89c.42-.19,.67-.61,.67-1.04,.33,.35,.85,.47,1.31,.27,.58-.26,.83-.94,.57-1.52s-.94-.83-1.52-.57c-.42,.19-.67,.61-.67,1.04-.33-.35-.85-.47-1.31-.27-.58,.26-.83,.94-.57,1.52,.26,.58,.94,.83,1.52,.57Z"/><path class="cls-2" d="M13.47,10.33c-.54,.25-.89,.79-.89,1.38v7.43c0,3.38-1.2,3.66-2.12,3.95,.07,.14,.46,.2,.77,.19,.45-.02,.77-.07,1.45-.41,1.01-.49,1.75-1.21,1.75-3.87V9.88l-.96,.45h0Z"/><path class="cls-1" d="M13.47,23.05l-.89,.41-.27,.13-1.13,.52c-.44,.2-.72,.64-.72,1.13v6.09c0,.78,.8,1.29,1.51,.96l.61-.28h0v1.65c0,3.38-1.2,3.66-2.12,3.95,.07,.14,.46,.2,.77,.19,.45-.02,.77-.07,1.45-.41,1.01-.49,1.75-1.21,1.75-3.87v-10.91l-.96,.45Zm-.89,8.48l-.27,.13v-7.59l.27-.13v7.59Z"/><path class="cls-1" d="M9.23,25.02c-.54,.25-.89,.79-.89,1.38v8.73c0,.87-.08,1.53-.22,2.04-.58,1.64-2.99,1.88-4.1,1.12-.33-.23-.43-.32-.61-.49-.06-.06-.1,0-.06,.06,.03,.05,.06,.09,.09,.15,1.13,1.78,3.63,1.8,5,.84,.92-.64,1.75-1.21,1.75-3.87v-10.43l-.96,.45Z"/><path class="cls-2" d="M21.24,26.26c-.21,.1-.3,.34-.21,.55l7.36-3.33c.21-.1,.3-.34,.21-.55l-7.36,3.33Z"/><path class="cls-1" d="M21.24,12.88c-.21,.1-.3,.34-.21,.55l7.36-3.33c.21-.1,.3-.34,.21-.55l-7.36,3.33Z"/></g><path class="cls-1" d="M46.48,.81c-.06-.19-.16-.34-.29-.46-.14-.12-.32-.21-.54-.26-.23-.06-.5-.08-.83-.08H1.75c-.33,0-.61,.03-.84,.08-.22,.06-.4,.14-.54,.26-.13,.12-.23,.27-.29,.46-.06,.19-.09,.42-.09,.68V43.63c0,.26,.03,.49,.09,.68,.06,.19,.16,.34,.29,.46,.13,.12,.31,.21,.54,.26,.22,.05,.5,.08,.84,.08H44.81c.33,0,.61-.03,.83-.08,.23-.05,.41-.14,.54-.26,.13-.12,.23-.27,.29-.46,.06-.19,.09-.42,.09-.68V1.49c0-.27-.03-.49-.09-.68Zm-.96,40.81v1.83c0,.16-.01,.29-.04,.39s-.07,.19-.13,.25c-.06,.06-.14,.11-.25,.13-.1,.03-.24,.04-.4,.04H1.85c-.16,0-.29-.01-.39-.04-.1-.03-.19-.07-.25-.13-.06-.06-.1-.14-.13-.25-.02-.1-.04-.23-.04-.39V1.67c0-.15,.01-.28,.04-.38,.02-.1,.07-.19,.13-.25,.06-.06,.14-.11,.25-.13,.1-.02,.23-.04,.39-.04H44.71c.16,0,.29,.01,.4,.04,.1,.02,.19,.07,.25,.13,.06,.06,.1,.15,.13,.25,.02,.1,.04,.23,.04,.38V41.62Z"/></g></g></svg>